<?xml version="1.0" standalone="no"?>
<!DOCTYPE svg PUBLIC "-//W3C//DTD SVG 20010904//EN"
 "http://www.w3.org/TR/2001/REC-SVG-20010904/DTD/svg10.dtd">
<svg version="1.0" xmlns="http://www.w3.org/2000/svg"
 width="322.000000pt" height="322.000000pt" viewBox="0 0 322.000000 322.000000"
 preserveAspectRatio="xMidYMid meet">

<g transform="translate(0.000000,322.000000) scale(0.100000,-0.100000)"
fill="#000000" stroke="none">
<path d="M2564 1667 c2 -20 -1 -23 -22 -19 -17 3 -31 -3 -48 -21 -13 -14 -24
-31 -24 -37 0 -5 -7 -10 -15 -10 -9 0 -12 -6 -9 -15 4 -10 2 -13 -8 -10 -9 4
-19 -6 -28 -29 -7 -19 -17 -34 -23 -33 -5 1 -22 -23 -38 -53 -43 -84 -62 -195
-28 -174 5 3 6 10 3 16 -4 6 -3 8 3 5 5 -3 16 3 24 14 8 11 33 41 57 66 23 25
42 50 42 54 0 5 8 17 18 27 52 54 105 119 113 139 5 13 13 23 19 23 17 0 11
18 -7 23 -14 4 -13 5 4 6 12 0 24 5 27 10 7 10 -18 22 -36 17 -7 -1 -10 -1 -5
1 9 6 -1 23 -13 23 -4 0 -7 -10 -6 -23z"/>
</g>
</svg>
